<svg width="40" height="40" viewBox="0 0 40 40" fill="none" xmlns="http://www.w3.org/2000/svg">
<path d="M35.15 11.6333C33.7333 10.0667 31.3667 9.28333 27.9333 9.28333H27.5333V9.21667C27.5333 6.41667 27.5333 2.95 21.2667 2.95H18.7333C12.4667 2.95 12.4667 6.43333 12.4667 9.21667V9.3H12.0667C8.61666 9.3 6.26666 10.0833 4.85 11.65C3.2 13.4833 3.25 15.95 3.41666 17.6333L3.43333 17.75L3.57745 19.2633C3.59172 19.4131 3.67259 19.5484 3.79827 19.6311C4.1645 19.8721 4.95057 20.3837 5.4 20.6333C5.63333 20.7833 5.88333 20.9167 6.13333 21.05C8.98333 22.6167 12.1167 23.6667 15.3 24.1833C15.45 25.75 16.1333 27.5833 19.7833 27.5833C23.4333 27.5833 24.15 25.7667 24.2667 24.15C27.6667 23.6 30.95 22.4167 33.9167 20.6833C34.0167 20.6333 34.0833 20.5833 34.1667 20.5333C34.8697 20.136 35.6008 19.6405 36.2571 19.1626C36.3697 19.0805 36.4421 18.9546 36.4575 18.8161L36.5 18.4333L36.5833 17.65C36.6 17.55 36.6 17.4667 36.6167 17.35C36.75 15.6667 36.7167 13.3667 35.15 11.6333ZM21.8167 23.05C21.8167 24.8167 21.8167 25.0833 19.7667 25.0833C17.7167 25.0833 17.7167 24.7667 17.7167 23.0667V20.9667H21.8167V23.05ZM14.85 9.28333V9.21667C14.85 6.38333 14.85 5.33333 18.7333 5.33333H21.2667C25.15 5.33333 25.15 6.4 25.15 9.21667V9.3H14.85V9.28333Z" fill="white"/>
<path d="M35.33 22.6311C35.6826 22.4609 36.0877 22.7416 36.0523 23.1315L35.4 30.3167C35.05 33.65 33.6833 37.05 26.35 37.05H13.65C6.31666 37.05 4.94999 33.65 4.59999 30.3333L3.97928 23.5055C3.94424 23.12 4.34131 22.8403 4.69312 23.0017C6.43078 23.7987 10.6067 25.6583 12.9686 26.2387C13.1335 26.2793 13.2681 26.3968 13.3352 26.5529C14.311 28.8233 16.5352 30.0333 19.7833 30.0333C22.9992 30.0333 25.2533 28.7768 26.2313 26.5031C26.2985 26.3469 26.4328 26.2295 26.5979 26.1888C29.1011 25.5728 33.523 23.5032 35.33 22.6311Z" fill="white"/>
</svg>
