<svg width="32" height="34" viewBox="0 0 32 34" fill="none" xmlns="http://www.w3.org/2000/svg">
<g clip-path="url(#clip0_2028_71)">
<path d="M31.3276 17.3334C31.3276 8.12762 24.5175 0.666687 16.1149 0.666687C7.71219 0.666687 0.9021 8.12762 0.9021 17.3334C0.9021 25.1459 5.81654 31.7084 12.4424 33.5117V22.4245H9.30478V17.3334H12.4424V15.1393C12.4424 9.46877 14.7837 6.83856 19.8705 6.83856C20.8332 6.83856 22.4971 7.0469 23.1805 7.25523V11.8646C22.8239 11.8255 22.2 11.7995 21.4215 11.7995C18.9257 11.7995 17.963 12.8347 17.963 15.5235V17.3334H22.9309L22.0752 22.4245H17.957V33.8763C25.4921 32.8802 31.3276 25.8555 31.3276 17.3334Z" fill="black"/>
</g>
<defs>
<clipPath id="clip0_2028_71">
<rect width="30.4255" height="33.3333" fill="white" transform="translate(0.9021 0.666687)"/>
</clipPath>
</defs>
</svg>
