<svg width="48" height="48" viewBox="0 0 48 48" fill="none" xmlns="http://www.w3.org/2000/svg">
<path fill-rule="evenodd" clip-rule="evenodd" d="M38 12H36V10C36 6.68629 33.3137 4 30 4H10C6.68629 4 4 6.68629 4 10V24C4 27.3137 6.68629 30 10 30V34C10.0023 34.7531 10.4274 35.4411 11.1 35.78C11.376 35.9297 11.686 36.0055 12 36C12.4327 36 12.8538 35.8596 13.2 35.6C14.3331 37.1108 16.1115 38 18 38H27.34L34.8 43.6C35.1462 43.8596 35.5673 44 36 44C36.314 44.0055 36.624 43.9297 36.9 43.78C37.5726 43.4411 37.9977 42.7531 38 42V38C41.3137 38 44 35.3137 44 32V18C44 14.6863 41.3137 12 38 12ZM14 30V28C14 26.8954 13.1046 26 12 26H10C8.89543 26 8 25.1046 8 24V10C8 8.89543 8.89543 8 10 8H30C31.1046 8 32 8.89543 32 10V24C32 25.1046 31.1046 26 30 26H20C19.5673 26 19.1462 26.1404 18.8 26.4L14 30ZM38 34C39.1046 34 40 33.1046 40 32V18C40 16.8954 39.1046 16 38 16H36V24C36 27.3137 33.3137 30 30 30H20.66L16.44 33.18C16.805 33.6801 17.3811 33.9829 18 34H28C28.4327 34 28.8538 34.1404 29.2 34.4L34 38V36C34 34.8954 34.8954 34 36 34H38Z" fill="#DADADA"/>
</svg>
