<svg width="36" height="36" viewBox="0 0 36 36" fill="none" xmlns="http://www.w3.org/2000/svg">
<path d="M27.705 25.245L28.29 29.985C28.44 31.23 27.105 32.1 26.04 31.455L20.85 28.365C20.49 28.155 20.4 27.705 20.595 27.345C21.345 25.965 21.75 24.405 21.75 22.845C21.75 17.355 17.04 12.885 11.25 12.885C10.065 12.885 8.91002 13.065 7.83002 13.425C7.27502 13.605 6.73502 13.095 6.87002 12.525C8.23502 7.065 13.485 3 19.755 3C27.075 3 33 8.535 33 15.36C33 19.41 30.915 22.995 27.705 25.245Z" fill="white"/>
<path d="M19.5 22.845C19.5 24.63 18.84 26.28 17.73 27.585C16.245 29.385 13.89 30.54 11.25 30.54L7.335 32.865C6.675 33.27 5.835 32.715 5.925 31.95L6.3 28.995C4.29 27.6 3 25.365 3 22.845C3 20.205 4.41 17.88 6.57 16.5C7.905 15.63 9.51 15.135 11.25 15.135C15.81 15.135 19.5 18.585 19.5 22.845Z" fill="white"/>
</svg>
