<svg width="21" height="21" viewBox="0 0 21 21" fill="none" xmlns="http://www.w3.org/2000/svg">
<path d="M20.6438 8.24923L18.8978 6.73914L17.9933 5.9991L11.1777 0.248749C10.7806 -0.0829165 10.1864 -0.0829165 9.78931 0.248749L2.97371 5.9991L2.06917 6.73914L0.323196 8.24923C-0.0828831 8.62009 -0.109769 9.22924 0.262202 9.63115C0.634174 10.0331 1.27305 10.0851 1.71156 9.74932L2.06917 9.4493V17.9998C2.06917 19.6568 3.48188 21 5.22454 21H7.32812V14.9996C7.32812 13.3427 8.74083 11.9995 10.4835 11.9995C12.2262 11.9995 13.6389 13.3427 13.6389 14.9996V21H15.7424C17.4851 21 18.8978 19.6568 18.8978 17.9998V9.4493L19.2554 9.74932C19.6913 10.1133 20.3548 10.073 20.7384 9.65932C21.1213 9.2449 21.0789 8.61401 20.6438 8.24923Z" fill="white"/>
</svg>
