<svg width="32" height="38" viewBox="0 0 32 38" fill="none" xmlns="http://www.w3.org/2000/svg">
<g clip-path="url(#clip0_2028_69)">
<path d="M15.9793 10.4648C11.5736 10.4648 8.01994 14.2723 8.01994 18.9926C8.01994 23.7129 11.5736 27.5203 15.9793 27.5203C20.3851 27.5203 23.9387 23.7129 23.9387 18.9926C23.9387 14.2723 20.3851 10.4648 15.9793 10.4648ZM15.9793 24.5367C13.1322 24.5367 10.8047 22.0504 10.8047 18.9926C10.8047 15.9348 13.1253 13.4484 15.9793 13.4484C18.8334 13.4484 21.154 15.9348 21.154 18.9926C21.154 22.0504 18.8264 24.5367 15.9793 24.5367ZM26.1208 10.116C26.1208 11.2219 25.2896 12.1051 24.2643 12.1051C23.2322 12.1051 22.4078 11.2144 22.4078 10.116C22.4078 9.01757 23.2391 8.12694 24.2643 8.12694C25.2896 8.12694 26.1208 9.01757 26.1208 10.116ZM31.3925 12.1348C31.2747 9.4703 30.7067 7.11014 28.8848 5.16561C27.0699 3.22108 24.867 2.61249 22.3801 2.47889C19.817 2.32303 12.1347 2.32303 9.57164 2.47889C7.09169 2.60507 4.88883 3.21366 3.06696 5.15819C1.2451 7.10272 0.68399 9.46288 0.559299 12.1273C0.413827 14.8734 0.413827 23.1043 0.559299 25.8504C0.677062 28.5148 1.2451 30.875 3.06696 32.8195C4.88883 34.7641 7.08476 35.3726 9.57164 35.5062C12.1347 35.6621 19.817 35.6621 22.3801 35.5062C24.867 35.3801 27.0699 34.7715 28.8848 32.8195C30.6997 30.875 31.2678 28.5148 31.3925 25.8504C31.5379 23.1043 31.5379 14.8808 31.3925 12.1348ZM28.0812 28.7969C27.5409 30.2516 26.4949 31.3723 25.1302 31.9586C23.0867 32.8269 18.2376 32.6266 15.9793 32.6266C13.7211 32.6266 8.86506 32.8195 6.82845 31.9586C5.47071 31.3797 4.4247 30.259 3.87745 28.7969C3.06696 26.6074 3.254 21.4121 3.254 18.9926C3.254 16.573 3.07389 11.3703 3.87745 9.18827C4.41777 7.73358 5.46379 6.61288 6.82845 6.02655C8.87199 5.15819 13.7211 5.35858 15.9793 5.35858C18.2376 5.35858 23.0936 5.16561 25.1302 6.02655C26.488 6.60546 27.534 7.72616 28.0812 9.18827C28.8917 11.3777 28.7047 16.573 28.7047 18.9926C28.7047 21.4121 28.8917 26.6148 28.0812 28.7969Z" fill="black"/>
</g>
<defs>
<clipPath id="clip0_2028_69">
<rect width="31.034" height="38" fill="white" transform="translate(0.455322)"/>
</clipPath>
</defs>
</svg>
