<svg width="28" height="30" viewBox="0 0 28 30" fill="none" xmlns="http://www.w3.org/2000/svg">
<g filter="url(#filter0_d_4004_208)">
<path d="M10.39 18.49V8.32998C10.39 7.92998 10.51 7.53998 10.73 7.20998L13.46 3.14998C13.89 2.49998 14.96 2.03998 15.87 2.37998C16.85 2.70998 17.5 3.80997 17.29 4.78997L16.77 8.05998C16.73 8.35998 16.81 8.62998 16.98 8.83998C17.15 9.02998 17.4 9.14997 17.67 9.14997H21.78C22.57 9.14997 23.25 9.46997 23.65 10.03C24.03 10.57 24.1 11.27 23.85 11.98L21.39 19.47C21.08 20.71 19.73 21.72 18.39 21.72H14.49C13.82 21.72 12.88 21.49 12.45 21.06L11.17 20.07C10.68 19.7 10.39 19.11 10.39 18.49Z" fill="white"/>
<path d="M7.21 6.38H6.18C4.63 6.38 4 6.98 4 8.46V18.52C4 20 4.63 20.6 6.18 20.6H7.21C8.76 20.6 9.39 20 9.39 18.52V8.46C9.39 6.98 8.76 6.38 7.21 6.38Z" fill="#00C041"/>
</g>
<defs>
<filter id="filter0_d_4004_208" x="0" y="2.26489" width="27.9971" height="27.4551" filterUnits="userSpaceOnUse" color-interpolation-filters="sRGB">
<feFlood flood-opacity="0" result="BackgroundImageFix"/>
<feColorMatrix in="SourceAlpha" type="matrix" values="0 0 0 0 0 0 0 0 0 0 0 0 0 0 0 0 0 0 127 0" result="hardAlpha"/>
<feOffset dy="4"/>
<feGaussianBlur stdDeviation="2"/>
<feComposite in2="hardAlpha" operator="out"/>
<feColorMatrix type="matrix" values="0 0 0 0 0 0 0 0 0 0 0 0 0 0 0 0 0 0 0.25 0"/>
<feBlend mode="normal" in2="BackgroundImageFix" result="effect1_dropShadow_4004_208"/>
<feBlend mode="normal" in="SourceGraphic" in2="effect1_dropShadow_4004_208" result="shape"/>
</filter>
</defs>
</svg>
