<svg width="247" height="48" viewBox="0 0 247 48" fill="none" xmlns="http://www.w3.org/2000/svg">
<path d="M69.3097 18.2756C69.196 17.1297 68.7083 16.2396 67.8466 15.6051C66.9848 14.9706 65.8153 14.6534 64.3381 14.6534C63.3343 14.6534 62.4867 14.7955 61.7955 15.0795C61.1042 15.3542 60.5739 15.7377 60.2045 16.2301C59.8447 16.7225 59.6648 17.2812 59.6648 17.9062C59.6458 18.4271 59.7547 18.8816 59.9915 19.2699C60.2377 19.6581 60.5739 19.9943 61 20.2784C61.4261 20.553 61.9186 20.7945 62.4773 21.0028C63.036 21.2017 63.6326 21.3722 64.267 21.5142L66.8807 22.1392C68.1496 22.4233 69.3144 22.8021 70.375 23.2756C71.4356 23.7491 72.3542 24.3314 73.1307 25.0227C73.9072 25.714 74.5085 26.5284 74.9347 27.4659C75.3703 28.4034 75.5928 29.4782 75.6023 30.6903C75.5928 32.4706 75.1383 34.0142 74.2386 35.321C73.3485 36.6184 72.0606 37.6269 70.375 38.3466C68.6989 39.0568 66.6771 39.4119 64.3097 39.4119C61.9612 39.4119 59.9157 39.0521 58.1733 38.3324C56.4403 37.6127 55.0862 36.5473 54.1108 35.1364C53.1449 33.7159 52.6383 31.9593 52.5909 29.8665H58.5426C58.6089 30.8419 58.8883 31.6562 59.3807 32.3097C59.8826 32.9536 60.5502 33.4413 61.3835 33.7727C62.2263 34.0947 63.178 34.2557 64.2386 34.2557C65.2803 34.2557 66.1847 34.1042 66.9517 33.8011C67.7282 33.4981 68.3295 33.0767 68.7557 32.5369C69.1818 31.9972 69.3949 31.3769 69.3949 30.6761C69.3949 30.0227 69.2008 29.4735 68.8125 29.0284C68.4337 28.5833 67.875 28.2045 67.1364 27.892C66.4072 27.5795 65.5123 27.2955 64.4517 27.0398L61.2841 26.2443C58.8314 25.6477 56.8949 24.715 55.4744 23.446C54.054 22.1771 53.3485 20.4678 53.358 18.3182C53.3485 16.5568 53.8172 15.018 54.7642 13.7017C55.7206 12.3854 57.0322 11.358 58.6989 10.6193C60.3655 9.88068 62.2595 9.51136 64.3807 9.51136C66.5398 9.51136 68.4242 9.88068 70.0341 10.6193C71.6534 11.358 72.9129 12.3854 73.8125 13.7017C74.7121 15.018 75.1761 16.5426 75.2045 18.2756H69.3097ZM91.2308 17.1818V21.7273H78.0916V17.1818H91.2308ZM81.0746 11.9545H87.1257V32.2955C87.1257 32.8542 87.2109 33.2898 87.3814 33.6023C87.5518 33.9053 87.7886 34.1184 88.0916 34.2415C88.4041 34.3646 88.764 34.4261 89.1712 34.4261C89.4553 34.4261 89.7393 34.4025 90.0234 34.3551C90.3075 34.2983 90.5253 34.2557 90.6768 34.2273L91.6286 38.7301C91.3255 38.8248 90.8994 38.9337 90.3501 39.0568C89.8009 39.1894 89.1333 39.2699 88.3473 39.2983C86.889 39.3551 85.6106 39.161 84.5121 38.7159C83.4231 38.2708 82.5755 37.5795 81.9695 36.642C81.3634 35.7045 81.0651 34.5208 81.0746 33.0909V11.9545ZM109.164 29.7102V17.1818H115.215V39H109.406V35.0369H109.178C108.686 36.3153 107.867 37.3428 106.721 38.1193C105.585 38.8958 104.197 39.2841 102.559 39.2841C101.101 39.2841 99.8175 38.9527 98.7095 38.2898C97.6016 37.6269 96.7351 36.6847 96.1101 35.4631C95.4946 34.2415 95.1821 32.7784 95.1726 31.0739V17.1818H101.224V29.9943C101.233 31.2822 101.579 32.3002 102.261 33.0483C102.942 33.7964 103.856 34.1705 105.002 34.1705C105.731 34.1705 106.413 34.0047 107.048 33.6733C107.682 33.3324 108.193 32.8305 108.582 32.1676C108.979 31.5047 109.174 30.6856 109.164 29.7102ZM128.095 39.3551C126.438 39.3551 124.937 38.929 123.592 38.0767C122.257 37.215 121.196 35.9508 120.411 34.2841C119.634 32.608 119.246 30.553 119.246 28.1193C119.246 25.6193 119.648 23.5407 120.453 21.8835C121.258 20.2169 122.328 18.9716 123.663 18.1477C125.008 17.3144 126.481 16.8977 128.081 16.8977C129.303 16.8977 130.321 17.1061 131.135 17.5227C131.959 17.9299 132.622 18.4413 133.124 19.0568C133.635 19.6629 134.023 20.2595 134.288 20.8466H134.473V9.90909H140.51V39H134.544V35.5057H134.288C134.004 36.1117 133.602 36.7131 133.081 37.3097C132.57 37.8968 131.902 38.3845 131.078 38.7727C130.264 39.161 129.269 39.3551 128.095 39.3551ZM130.013 34.5398C130.988 34.5398 131.812 34.2746 132.484 33.7443C133.166 33.2045 133.687 32.4517 134.047 31.4858C134.416 30.5199 134.601 29.3883 134.601 28.0909C134.601 26.7936 134.421 25.6667 134.061 24.7102C133.701 23.7538 133.18 23.0152 132.499 22.4943C131.817 21.9735 130.988 21.7131 130.013 21.7131C129.018 21.7131 128.18 21.983 127.499 22.5227C126.817 23.0625 126.301 23.8106 125.95 24.767C125.6 25.7235 125.425 26.8314 125.425 28.0909C125.425 29.3598 125.6 30.482 125.95 31.4574C126.31 32.4233 126.826 33.1809 127.499 33.7301C128.18 34.2699 129.018 34.5398 130.013 34.5398ZM149.221 47.1818C148.454 47.1818 147.734 47.1203 147.062 46.9972C146.399 46.8835 145.85 46.7367 145.414 46.5568L146.778 42.0398C147.488 42.2576 148.127 42.3759 148.695 42.3949C149.273 42.4138 149.77 42.2813 150.187 41.9972C150.613 41.7131 150.959 41.2301 151.224 40.5483L151.579 39.625L143.752 17.1818H150.116L154.633 33.2045H154.86L159.42 17.1818H165.826L157.346 41.358C156.939 42.5322 156.385 43.5549 155.684 44.4261C154.993 45.3068 154.117 45.9839 153.056 46.4574C151.996 46.9403 150.717 47.1818 149.221 47.1818ZM169.036 39V9.90909H175.187V21.9119H187.673V9.90909H193.809V39H187.673V26.983H175.187V39H169.036ZM212.758 29.7102V17.1818H218.809V39H212.999V35.0369H212.772C212.28 36.3153 211.46 37.3428 210.315 38.1193C209.178 38.8958 207.791 39.2841 206.153 39.2841C204.694 39.2841 203.411 38.9527 202.303 38.2898C201.195 37.6269 200.329 36.6847 199.704 35.4631C199.088 34.2415 198.776 32.7784 198.766 31.0739V17.1818H204.817V29.9943C204.827 31.2822 205.173 32.3002 205.854 33.0483C206.536 33.7964 207.45 34.1705 208.596 34.1705C209.325 34.1705 210.007 34.0047 210.641 33.6733C211.276 33.3324 211.787 32.8305 212.175 32.1676C212.573 31.5047 212.767 30.6856 212.758 29.7102ZM223.763 39V9.90909H229.814V20.8466H229.999C230.264 20.2595 230.647 19.6629 231.149 19.0568C231.661 18.4413 232.323 17.9299 233.138 17.5227C233.962 17.1061 234.984 16.8977 236.206 16.8977C237.797 16.8977 239.265 17.3144 240.609 18.1477C241.954 18.9716 243.029 20.2169 243.834 21.8835C244.639 23.5407 245.041 25.6193 245.041 28.1193C245.041 30.553 244.648 32.608 243.862 34.2841C243.086 35.9508 242.025 37.215 240.68 38.0767C239.345 38.929 237.849 39.3551 236.192 39.3551C235.018 39.3551 234.018 39.161 233.195 38.7727C232.38 38.3845 231.713 37.8968 231.192 37.3097C230.671 36.7131 230.273 36.1117 229.999 35.5057H229.729V39H223.763ZM229.686 28.0909C229.686 29.3883 229.866 30.5199 230.226 31.4858C230.586 32.4517 231.107 33.2045 231.788 33.7443C232.47 34.2746 233.299 34.5398 234.274 34.5398C235.259 34.5398 236.092 34.2699 236.774 33.7301C237.456 33.1809 237.972 32.4233 238.322 31.4574C238.682 30.482 238.862 29.3598 238.862 28.0909C238.862 26.8314 238.687 25.7235 238.337 24.767C237.986 23.8106 237.47 23.0625 236.788 22.5227C236.107 21.983 235.268 21.7131 234.274 21.7131C233.289 21.7131 232.456 21.9735 231.774 22.4943C231.102 23.0152 230.586 23.7538 230.226 24.7102C229.866 25.6667 229.686 26.7936 229.686 28.0909Z" fill="white"/>
<path d="M28.05 30.0667C29.1666 29.3333 30.6333 30.1333 30.6333 31.4667V33.6167C30.6333 35.7333 28.9833 38 27 38.6667L21.6833 40.4333C20.75 40.75 19.2333 40.75 18.3166 40.4333L13 38.6667C11 38 9.36664 35.7333 9.36664 33.6167V31.45C9.36664 30.1333 10.8333 29.3333 11.9333 30.05L15.3666 32.2833C16.6833 33.1667 18.35 33.6 20.0166 33.6C21.6833 33.6 23.35 33.1667 24.6666 32.2833L28.05 30.0667Z" fill="white"/>
<path d="M33.3 14.7667L23.3166 8.21667C21.5166 7.03333 18.55 7.03333 16.75 8.21667L6.71664 14.7667C3.49997 16.85 3.49997 21.5667 6.71664 23.6667L9.3833 25.4L16.75 30.2C18.55 31.3833 21.5166 31.3833 23.3166 30.2L30.6333 25.4L32.9166 23.9V29C32.9166 29.6833 33.4833 30.25 34.1666 30.25C34.85 30.25 35.4166 29.6833 35.4166 29V20.8C36.0833 18.65 35.4 16.15 33.3 14.7667Z" fill="white"/>
</svg>
