<svg width="40" height="40" viewBox="0 0 40 40" fill="none" xmlns="http://www.w3.org/2000/svg">
<path d="M36.1833 33.8167L27.1833 24.8333C29.0116 22.5041 30.0037 19.6278 30 16.6667C30 9.30288 24.0305 3.33334 16.6667 3.33334C9.30287 3.33334 3.33333 9.30288 3.33333 16.6667C3.33333 24.0305 9.30287 30 16.6667 30C19.6278 30.0037 22.5041 29.0117 24.8333 27.1833L33.8167 36.1833C34.1296 36.4989 34.5556 36.6763 35 36.6763C35.4444 36.6763 35.8704 36.4989 36.1833 36.1833C36.4989 35.8704 36.6763 35.4444 36.6763 35C36.6763 34.5556 36.4989 34.1296 36.1833 33.8167Z" fill="#DADADA"/>
</svg>
