<svg width="50" height="50" viewBox="0 0 50 50" fill="none" xmlns="http://www.w3.org/2000/svg">
<path d="M45.8334 25C45.8334 13.5208 36.4792 4.16666 25 4.16666C13.5209 4.16666 4.16669 13.5208 4.16669 25C4.16669 31.0417 6.77085 36.4792 10.8959 40.2917C10.8959 40.3125 10.8959 40.3125 10.875 40.3333C11.0834 40.5417 11.3334 40.7083 11.5417 40.8958C11.6667 41 11.7709 41.1042 11.8959 41.1875C12.2709 41.5 12.6875 41.7917 13.0834 42.0833C13.2292 42.1875 13.3542 42.2708 13.5 42.375C13.8959 42.6458 14.3125 42.8958 14.75 43.125C14.8959 43.2083 15.0625 43.3125 15.2084 43.3958C15.625 43.625 16.0625 43.8333 16.5209 44.0208C16.6875 44.1042 16.8542 44.1875 17.0209 44.25C17.4792 44.4375 17.9375 44.6042 18.3959 44.75C18.5625 44.8125 18.7292 44.875 18.8959 44.9167C19.3959 45.0625 19.8959 45.1875 20.3959 45.3125C20.5417 45.3542 20.6875 45.3958 20.8542 45.4167C21.4375 45.5417 22.0209 45.625 22.625 45.6875C22.7084 45.6875 22.7917 45.7083 22.875 45.7292C23.5834 45.7917 24.2917 45.8333 25 45.8333C25.7084 45.8333 26.4167 45.7917 27.1042 45.7292C27.1875 45.7292 27.2709 45.7083 27.3542 45.6875C27.9584 45.625 28.5417 45.5417 29.125 45.4167C29.2709 45.3958 29.4167 45.3333 29.5834 45.3125C30.0834 45.1875 30.6042 45.0833 31.0834 44.9167C31.25 44.8542 31.4167 44.7917 31.5834 44.75C32.0417 44.5833 32.5209 44.4375 32.9584 44.25C33.125 44.1875 33.2917 44.1042 33.4584 44.0208C33.8959 43.8333 34.3334 43.625 34.7709 43.3958C34.9375 43.3125 35.0834 43.2083 35.2292 43.125C35.6459 42.875 36.0625 42.6458 36.4792 42.375C36.625 42.2917 36.75 42.1875 36.8959 42.0833C37.3125 41.7917 37.7084 41.5 38.0834 41.1875C38.2084 41.0833 38.3125 40.9792 38.4375 40.8958C38.6667 40.7083 38.8959 40.5208 39.1042 40.3333C39.1042 40.3125 39.1042 40.3125 39.0834 40.2917C43.2292 36.4792 45.8334 31.0417 45.8334 25ZM35.2917 35.3542C29.6459 31.5625 20.3959 31.5625 14.7084 35.3542C13.7917 35.9583 13.0417 36.6667 12.4167 37.4375C9.25002 34.2292 7.29169 29.8333 7.29169 25C7.29169 15.2292 15.2292 7.29166 25 7.29166C34.7709 7.29166 42.7084 15.2292 42.7084 25C42.7084 29.8333 40.75 34.2292 37.5834 37.4375C36.9792 36.6667 36.2084 35.9583 35.2917 35.3542Z" fill="#D9D9D9"/>
<path d="M25 14.4375C20.6875 14.4375 17.1875 17.9375 17.1875 22.25C17.1875 26.4792 20.5 29.9167 24.8958 30.0417C24.9583 30.0417 25.0417 30.0417 25.0833 30.0417C25.125 30.0417 25.1875 30.0417 25.2292 30.0417C25.25 30.0417 25.2708 30.0417 25.2708 30.0417C29.4792 29.8958 32.7917 26.4792 32.8125 22.25C32.8125 17.9375 29.3125 14.4375 25 14.4375Z" fill="#D9D9D9"/>
</svg>
