<svg width="30" height="31" viewBox="0 0 30 31" fill="none" xmlns="http://www.w3.org/2000/svg">
<g filter="url(#filter0_d_2165_625)">
<path d="M17.1361 3.36144L17.6337 3.31169L17.1361 3.36144ZM16.9838 2.54161L16.5394 2.7708V2.77081L16.9838 2.54161ZM17.4311 4.81793L17.8286 4.51467V4.51467L17.4311 4.81793ZM18.3595 5.20248L18.2928 4.70694L18.2928 4.70694L18.3595 5.20248ZM19.5979 4.38113L19.9145 4.76811V4.76811L19.5979 4.38113ZM20.2853 3.90918L20.4375 4.38547L20.2853 3.90918ZM20.9872 3.94419L21.186 3.48541V3.48541L20.9872 3.94419ZM21.6243 4.4822L21.2707 4.83575V4.83575L21.6243 4.4822ZM22.5178 5.37567L22.8713 5.02211V5.02211L22.5178 5.37567ZM23.0558 6.01275L23.5146 5.81396L23.5146 5.81396L23.0558 6.01275ZM23.0908 6.71464L23.5671 6.8668L23.5671 6.86679L23.0908 6.71464ZM22.6188 7.4021L22.2318 7.08548V7.08548L22.6188 7.4021ZM21.7975 8.64056L21.3019 8.5739V8.5739L21.7975 8.64056ZM22.182 9.56893L21.8787 9.96645L22.182 9.56893ZM23.6385 9.86385L23.6883 9.36633L23.6385 9.86385ZM24.4584 10.0162L24.6876 9.57187L24.6876 9.57187L24.4584 10.0162ZM24.9299 10.5373L25.3949 10.3534V10.3534L24.9299 10.5373ZM24.93 13.4626L24.465 13.2788L24.465 13.2788L24.93 13.4626ZM24.4583 13.9838L24.6875 14.4282H24.6875L24.4583 13.9838ZM23.6386 14.1361L23.5889 13.6386L23.5726 13.6402L23.5564 13.6429L23.6386 14.1361ZM23.6386 14.1361L23.6884 14.6337L23.7047 14.632L23.7208 14.6293L23.6386 14.1361ZM22.1825 14.4309L21.8794 14.0333L22.1825 14.4309ZM21.7979 15.3596L21.3023 15.4264V15.4264L21.7979 15.3596ZM22.619 16.5976L22.232 16.9142L22.619 16.5976ZM23.0908 17.2848L22.6145 17.437L22.6145 17.437L23.0908 17.2848ZM23.0558 17.9869L22.597 17.7881L22.597 17.7881L23.0558 17.9869ZM22.5179 18.6238L22.8715 18.9773L22.5179 18.6238ZM21.6243 19.5174L21.2708 19.1638V19.1638L21.6243 19.5174ZM20.9873 20.0554L21.1861 20.5141L21.1861 20.5141L20.9873 20.0554ZM20.2854 20.0904L20.1332 20.5667H20.1332L20.2854 20.0904ZM19.5979 19.6184L19.9146 19.2314L19.9103 19.228L19.5979 19.6184ZM19.5979 19.6184L19.2813 20.0054L19.2856 20.0088L19.5979 19.6184ZM18.3595 18.7971L18.4262 18.3015H18.4262L18.3595 18.7971ZM17.4311 19.1816L17.8286 19.4849L17.8286 19.4849L17.4311 19.1816ZM17.1362 20.6383L16.6386 20.5886L17.1362 20.6383ZM16.9837 21.4585L16.5394 21.2292L16.5394 21.2292L16.9837 21.4585ZM16.4628 21.9299L16.2789 21.465H16.2789L16.4628 21.9299ZM13.5373 21.9299L13.7211 21.465H13.7211L13.5373 21.9299ZM13.0162 21.4584L13.4606 21.2292L13.0162 21.4584ZM12.8639 20.6385L12.3663 20.6883L12.8639 20.6385ZM12.5689 19.182L12.1714 19.4853L12.1714 19.4853L12.5689 19.182ZM11.6406 18.7975L11.5739 18.3019H11.5739L11.6406 18.7975ZM10.4021 19.6189L10.0855 19.2319L10.0775 19.2384L10.0699 19.2452L10.4021 19.6189ZM10.4021 19.6189L10.7187 20.0058L10.7266 19.9994L10.7342 19.9926L10.4021 19.6189ZM9.71458 20.0908L9.86673 20.5671H9.86673L9.71458 20.0908ZM9.01272 20.0558L8.81394 20.5146H8.81394L9.01272 20.0558ZM8.37561 19.5178L8.72916 19.1642H8.72916L8.37561 19.5178ZM7.48217 18.6243L7.12861 18.9779H7.12861L7.48217 18.6243ZM6.94414 17.9873L7.40292 17.7885L6.94414 17.9873ZM6.90913 17.2854L7.38542 17.4375L6.90913 17.2854ZM7.3811 16.5979L7.76808 16.9145L7.3811 16.5979ZM8.20247 15.3594L8.69801 15.4261L8.20247 15.3594ZM7.81792 14.4311L8.12119 14.0335H8.12119L7.81792 14.4311ZM6.36143 14.1361L6.31168 14.6337H6.31168L6.36143 14.1361ZM5.54161 13.9838L5.77081 13.5394H5.77081L5.54161 13.9838ZM5.07005 13.4627L4.60507 13.6465H4.60507L5.07005 13.4627ZM5.07008 10.5372L4.60513 10.3533L4.60513 10.3533L5.07008 10.5372ZM5.54152 10.0163L5.31229 9.57193L5.31228 9.57193L5.54152 10.0163ZM6.36155 9.86384V9.36384H6.33661L6.3118 9.36633L6.36155 9.86384ZM6.36156 9.86384V10.3638H6.3865L6.41131 10.3614L6.36156 9.86384ZM7.81842 9.56881L7.5151 9.17132L7.51509 9.17132L7.81842 9.56881ZM8.20287 8.64066L8.69841 8.57408H8.69841L8.20287 8.64066ZM7.38128 7.40182L7.76826 7.0852L7.38128 7.40182ZM6.90914 6.71405L7.38545 6.56197H7.38544L6.90914 6.71405ZM6.94413 6.01243L6.48532 5.81371L6.48532 5.81371L6.94413 6.01243ZM7.48233 5.37509L7.83589 5.72864L7.83589 5.72864L7.48233 5.37509ZM8.37565 4.48177L8.0221 4.12822H8.0221L8.37565 4.48177ZM9.01277 3.94373L8.81398 3.48494H8.81398L9.01277 3.94373ZM9.71463 3.90872L9.86677 3.43243L9.71463 3.90872ZM10.4022 4.38076L10.7188 3.99378V3.99378L10.4022 4.38076ZM11.6404 5.20207L11.7072 4.70654L11.6404 5.20207ZM12.5691 4.81742L12.1715 4.51422L12.5691 4.81742ZM12.8639 3.36131L13.3614 3.41106V3.41106L12.8639 3.36131ZM13.0162 2.5417L12.5718 2.31255L12.5718 2.31256L13.0162 2.5417ZM13.5374 2.07001L13.7212 2.535L13.7212 2.535L13.5374 2.07001ZM16.4627 2.07005L16.6465 1.60507L16.6465 1.60507L16.4627 2.07005ZM17.6337 3.31169C17.6126 3.10146 17.5947 2.91945 17.5695 2.7696C17.5435 2.61482 17.5051 2.46166 17.4281 2.31242L16.5394 2.77081C16.5497 2.79088 16.5658 2.8308 16.5833 2.93519C16.6017 3.04449 16.6163 3.18775 16.6386 3.41119L17.6337 3.31169ZM17.8286 4.51467C17.8173 4.49983 17.7806 4.43872 17.7421 4.22451C17.7044 4.01507 17.6755 3.73051 17.6337 3.31169L16.6386 3.41119C16.6788 3.81323 16.7116 4.14432 16.7579 4.40161C16.8033 4.65413 16.8731 4.91083 17.0335 5.12119L17.8286 4.51467ZM18.2928 4.70694C18.1148 4.73089 17.9375 4.65749 17.8286 4.51467L17.0335 5.12118C17.3604 5.54967 17.892 5.76987 18.4261 5.69801L18.2928 4.70694ZM19.2813 3.99415C18.9555 4.26069 18.7339 4.44152 18.5592 4.56296C18.3804 4.68717 18.3113 4.70445 18.2928 4.70694L18.4261 5.69801C18.6883 5.66274 18.9192 5.53055 19.1298 5.38412C19.3445 5.23493 19.6018 5.02396 19.9145 4.76811L19.2813 3.99415ZM20.1332 3.4329C19.9732 3.484 19.8377 3.56512 19.7099 3.65619C19.5861 3.74436 19.4448 3.86037 19.2813 3.99415L19.9145 4.76811C20.0883 4.62591 20.1999 4.53493 20.2902 4.47062C20.3764 4.4092 20.416 4.39234 20.4375 4.38547L20.1332 3.4329ZM21.186 3.48541C20.853 3.3411 20.4789 3.32244 20.1332 3.4329L20.4375 4.38547C20.5527 4.34865 20.6774 4.35487 20.7884 4.40297L21.186 3.48541ZM21.9778 4.12865C21.8285 3.97925 21.6993 3.84975 21.5849 3.74971C21.4668 3.64638 21.3401 3.55217 21.186 3.48541L20.7884 4.40297C20.8092 4.41195 20.8469 4.43267 20.9265 4.50236C21.01 4.57534 21.112 4.67697 21.2707 4.83575L21.9778 4.12865ZM22.8713 5.02211L21.9778 4.12865L21.2707 4.83575L22.1642 5.72922L22.8713 5.02211ZM23.5146 5.81396C23.4478 5.65988 23.3536 5.53314 23.2503 5.41502C23.1502 5.30065 23.0207 5.17151 22.8713 5.02211L22.1642 5.72922C22.323 5.88801 22.4246 5.99001 22.4976 6.07343C22.5673 6.1531 22.588 6.19082 22.597 6.21155L23.5146 5.81396ZM23.5671 6.86679C23.6775 6.52106 23.6589 6.147 23.5146 5.81396L22.597 6.21154C22.6451 6.32255 22.6513 6.44724 22.6145 6.56249L23.5671 6.86679ZM23.0058 7.71872C23.1396 7.5552 23.2556 7.41382 23.3438 7.29006C23.4348 7.16224 23.516 7.02676 23.5671 6.8668L22.6145 6.56249C22.6076 6.58401 22.5908 6.62359 22.5293 6.7098C22.465 6.80008 22.374 6.91168 22.2318 7.08548L23.0058 7.71872ZM22.293 8.70721C22.2955 8.68872 22.3128 8.61958 22.437 8.44084C22.5584 8.2661 22.7393 8.0445 23.0058 7.71872L22.2318 7.08548C21.976 7.3982 21.765 7.65547 21.6158 7.87015C21.4694 8.08084 21.3372 8.31168 21.3019 8.5739L22.293 8.70721ZM22.4853 9.1714C22.3424 9.06244 22.2691 8.88524 22.293 8.70721L21.3019 8.5739C21.2301 9.108 21.4503 9.63959 21.8787 9.96645L22.4853 9.1714ZM23.6883 9.36633C23.2694 9.32445 22.9849 9.29562 22.7754 9.25793C22.5612 9.21938 22.5001 9.18271 22.4853 9.1714L21.8787 9.96645C22.0891 10.1269 22.3458 10.1967 22.5983 10.2421C22.8556 10.2884 23.1867 10.3212 23.5888 10.3614L23.6883 9.36633ZM24.6876 9.57187C24.5384 9.49489 24.3852 9.45645 24.2304 9.43046C24.0805 9.4053 23.8985 9.38736 23.6883 9.36633L23.5888 10.3614C23.8122 10.3837 23.9555 10.3983 24.0648 10.4167C24.1692 10.4342 24.2091 10.4503 24.2292 10.4606L24.6876 9.57187ZM25.3949 10.3534C25.2615 10.0159 25.0102 9.73825 24.6876 9.57187L24.2292 10.4606C24.3367 10.5161 24.4205 10.6086 24.465 10.7211L25.3949 10.3534ZM25.5 11.3682C25.5 11.157 25.5003 10.9741 25.4901 10.8224C25.4797 10.6658 25.4567 10.5096 25.3949 10.3534L24.465 10.7211C24.4733 10.7421 24.4853 10.7835 24.4924 10.8891C24.4997 10.9997 24.5 11.1437 24.5 11.3682H25.5ZM25.5 12.6319V11.3682H24.5V12.6319H25.5ZM25.395 13.6464C25.4567 13.4903 25.4797 13.3341 25.4901 13.1775C25.5003 13.026 25.5 12.8431 25.5 12.6319H24.5C24.5 12.8564 24.4997 13.0003 24.4924 13.1109C24.4853 13.2165 24.4733 13.2578 24.465 13.2788L25.395 13.6464ZM24.6875 14.4282C25.0101 14.2618 25.2615 13.984 25.395 13.6464L24.465 13.2788C24.4205 13.3914 24.3367 13.4839 24.2292 13.5394L24.6875 14.4282ZM23.6884 14.6337C23.8986 14.6126 24.0805 14.5947 24.2304 14.5695C24.3851 14.5436 24.5383 14.5051 24.6875 14.4282L24.2292 13.5394C24.2091 13.5498 24.1692 13.5658 24.0648 13.5833C23.9555 13.6017 23.8123 13.6163 23.5889 13.6386L23.6884 14.6337ZM23.7208 14.6293L23.7208 14.6293L23.5564 13.6429L23.5564 13.6429L23.7208 14.6293ZM22.4857 14.8285C22.5006 14.8172 22.5617 14.7805 22.7758 14.742C22.9852 14.7043 23.2697 14.6755 23.6884 14.6337L23.5889 13.6386C23.1869 13.6788 22.856 13.7115 22.5987 13.7578C22.3463 13.8032 22.0897 13.8729 21.8794 14.0333L22.4857 14.8285ZM22.2934 15.2929C22.2694 15.1148 22.3428 14.9375 22.4857 14.8285L21.8794 14.0333C21.4507 14.3602 21.2304 14.8921 21.3023 15.4264L22.2934 15.2929ZM23.006 16.281C22.7395 15.9553 22.5588 15.7338 22.4373 15.5591C22.3132 15.3805 22.2959 15.3113 22.2934 15.2929L21.3023 15.4264C21.3377 15.6885 21.4698 15.9192 21.6162 16.1298C21.7653 16.3444 21.9762 16.6016 22.232 16.9142L23.006 16.281ZM23.5671 17.1326C23.5159 16.9727 23.4348 16.8372 23.3438 16.7095C23.2557 16.5858 23.1397 16.4444 23.006 16.281L22.232 16.9142C22.3741 17.0879 22.4651 17.1995 22.5294 17.2897C22.5908 17.3759 22.6076 17.4155 22.6145 17.437L23.5671 17.1326ZM23.5145 18.1858C23.6589 17.8526 23.6776 17.4784 23.5671 17.1326L22.6145 17.437C22.6514 17.5523 22.6451 17.677 22.597 17.7881L23.5145 18.1858ZM22.8715 18.9773C23.0208 18.828 23.1503 18.6989 23.2503 18.5846C23.3536 18.4665 23.4478 18.3398 23.5145 18.1858L22.597 17.7881C22.588 17.8088 22.5673 17.8465 22.4976 17.9261C22.4247 18.0095 22.3231 18.1115 22.1644 18.2702L22.8715 18.9773ZM21.9779 19.8709L22.8715 18.9773L22.1644 18.2702L21.2708 19.1638L21.9779 19.8709ZM21.1861 20.5141C21.3401 20.4474 21.4669 20.3532 21.585 20.2498C21.6994 20.1498 21.8285 20.0203 21.9779 19.8709L21.2708 19.1638C21.112 19.3226 21.01 19.4242 20.9266 19.4972C20.8469 19.5669 20.8092 19.5876 20.7885 19.5966L21.1861 20.5141ZM20.1332 20.5667C20.4789 20.6771 20.853 20.6585 21.1861 20.5141L20.7885 19.5966C20.6775 19.6447 20.5528 19.6509 20.4375 19.6141L20.1332 20.5667ZM19.2813 20.0054C19.4448 20.1392 19.5862 20.2552 19.7099 20.3434C19.8378 20.4344 19.9732 20.5156 20.1332 20.5667L20.4375 19.6141C20.416 19.6072 20.3764 19.5904 20.2902 19.5289C20.1999 19.4646 20.0883 19.3736 19.9145 19.2314L19.2813 20.0054ZM19.2856 20.0088L19.2856 20.0089L19.9103 19.228L19.9103 19.228L19.2856 20.0088ZM18.2928 19.2926C18.3113 19.2951 18.3805 19.3124 18.5592 19.4366C18.7339 19.558 18.9555 19.7389 19.2813 20.0054L19.9145 19.2314C19.6018 18.9756 19.3446 18.7646 19.1299 18.6154C18.9192 18.469 18.6884 18.3368 18.4262 18.3015L18.2928 19.2926ZM17.8286 19.4849C17.9376 19.3421 18.1148 19.2687 18.2928 19.2926L18.4262 18.3015C17.892 18.2297 17.3604 18.4499 17.0336 18.8784L17.8286 19.4849ZM17.6337 20.6881C17.6756 20.2692 17.7044 19.9846 17.7421 19.7751C17.7807 19.5608 17.8173 19.4997 17.8286 19.4849L17.0336 18.8784C16.8731 19.0887 16.8033 19.3455 16.7579 19.598C16.7116 19.8553 16.6789 20.1865 16.6386 20.5886L17.6337 20.6881ZM17.4281 21.6877C17.5051 21.5385 17.5435 21.3852 17.5695 21.2304C17.5947 21.0805 17.6127 20.8984 17.6337 20.6881L16.6386 20.5886C16.6163 20.8121 16.6017 20.9554 16.5833 21.0648C16.5658 21.1692 16.5497 21.2092 16.5394 21.2292L17.4281 21.6877ZM16.6467 22.3949C16.9841 22.2614 17.2617 22.0102 17.4281 21.6877L16.5394 21.2292C16.4839 21.3367 16.3914 21.4205 16.2789 21.465L16.6467 22.3949ZM15.6316 22.5C15.843 22.5 16.0259 22.5003 16.1776 22.4901C16.3342 22.4797 16.4905 22.4566 16.6467 22.3949L16.2789 21.465C16.2579 21.4733 16.2166 21.4853 16.1109 21.4924C16.0003 21.4997 15.8563 21.5 15.6316 21.5V22.5ZM14.3682 22.5H15.6316V21.5H14.3682V22.5ZM13.3534 22.3949C13.5096 22.4567 13.6658 22.4797 13.8224 22.4901C13.9741 22.5003 14.157 22.5 14.3682 22.5V21.5C14.1437 21.5 13.9997 21.4997 13.8891 21.4924C13.7835 21.4853 13.7421 21.4733 13.7211 21.465L13.3534 22.3949ZM12.5719 21.6876C12.7382 22.0102 13.0159 22.2615 13.3534 22.3949L13.7211 21.465C13.6086 21.4205 13.5161 21.3367 13.4606 21.2292L12.5719 21.6876ZM12.3663 20.6883C12.3874 20.8985 12.4053 21.0805 12.4305 21.2304C12.4565 21.3852 12.4949 21.5384 12.5719 21.6876L13.4606 21.2292C13.4503 21.2091 13.4342 21.1692 13.4167 21.0648C13.3983 20.9555 13.3837 20.8122 13.3614 20.5888L12.3663 20.6883ZM12.1714 19.4853C12.1827 19.5001 12.2194 19.5612 12.2579 19.7754C12.2956 19.9849 12.3245 20.2695 12.3663 20.6883L13.3614 20.5888C13.3212 20.1867 13.2884 19.8556 13.2421 19.5983C13.1967 19.3458 13.1269 19.0891 12.9664 18.8787L12.1714 19.4853ZM11.7072 19.293C11.8852 19.2691 12.0624 19.3425 12.1714 19.4853L12.9664 18.8787C12.6396 18.4503 12.108 18.2301 11.5739 18.3019L11.7072 19.293ZM10.7187 20.0058C11.0445 19.7393 11.2661 19.5584 11.4408 19.437C11.6196 19.3128 11.6887 19.2955 11.7072 19.293L11.5739 18.3019C11.3117 18.3372 11.0809 18.4694 10.8702 18.6158C10.6555 18.765 10.3982 18.976 10.0855 19.2319L10.7187 20.0058ZM10.7342 19.9926L10.7343 19.9926L10.0699 19.2452L10.0699 19.2452L10.7342 19.9926ZM9.86673 20.5671C10.0267 20.516 10.1622 20.4349 10.29 20.3438C10.4138 20.2557 10.5552 20.1396 10.7187 20.0058L10.0854 19.2319C9.91164 19.3741 9.80003 19.4651 9.70976 19.5294C9.62354 19.5908 9.58395 19.6077 9.56244 19.6145L9.86673 20.5671ZM8.81394 20.5146C9.14696 20.6589 9.521 20.6776 9.86673 20.5671L9.56244 19.6145C9.44719 19.6514 9.32251 19.6451 9.21151 19.597L8.81394 20.5146ZM8.02205 19.8713C8.17146 20.0207 8.3006 20.1503 8.41497 20.2503C8.5331 20.3536 8.65985 20.4479 8.81394 20.5146L9.21151 19.597C9.19078 19.5881 9.15306 19.5673 9.07339 19.4977C8.98996 19.4247 8.88796 19.323 8.72916 19.1642L8.02205 19.8713ZM7.12861 18.9779L8.02205 19.8713L8.72916 19.1642L7.83572 18.2708L7.12861 18.9779ZM6.48535 18.186C6.55212 18.3401 6.64632 18.4669 6.74966 18.585C6.84971 18.6994 6.97922 18.8285 7.12861 18.9779L7.83572 18.2708C7.67693 18.112 7.57529 18.01 7.50232 17.9266C7.43262 17.8469 7.4119 17.8092 7.40292 17.7885L6.48535 18.186ZM6.43284 17.1332C6.3224 17.479 6.34106 17.853 6.48535 18.186L7.40292 17.7885C7.35482 17.6775 7.34861 17.5528 7.38542 17.4375L6.43284 17.1332ZM6.99413 16.2813C6.86033 16.4448 6.74432 16.5862 6.65614 16.7099C6.56507 16.8378 6.48395 16.9733 6.43284 17.1332L7.38542 17.4375C7.39229 17.416 7.40915 17.3764 7.47058 17.2902C7.53489 17.1999 7.62588 17.0883 7.76808 16.9145L6.99413 16.2813ZM7.70694 15.2928C7.70445 15.3113 7.68716 15.3804 7.56295 15.5592C7.4415 15.7339 7.26067 15.9555 6.99413 16.2813L7.76808 16.9145C8.02394 16.6018 8.23491 16.3445 8.38411 16.1298C8.53054 15.9192 8.66274 15.6883 8.69801 15.4261L7.70694 15.2928ZM7.51466 14.8286C7.65749 14.9375 7.73088 15.1147 7.70694 15.2928L8.69801 15.4261C8.76986 14.892 8.54966 14.3604 8.12119 14.0335L7.51466 14.8286ZM6.31168 14.6337C6.73051 14.6755 7.01507 14.7044 7.2245 14.7421C7.43871 14.7806 7.49983 14.8173 7.51466 14.8286L8.12119 14.0335C7.91083 13.8731 7.65413 13.8033 7.40161 13.7579C7.14432 13.7116 6.81322 13.6788 6.41118 13.6386L6.31168 14.6337ZM5.31242 14.4281C5.46166 14.5051 5.61482 14.5435 5.7696 14.5695C5.91945 14.5947 6.10145 14.6126 6.31168 14.6337L6.41118 13.6386C6.18774 13.6163 6.04449 13.6017 5.93519 13.5833C5.8308 13.5658 5.79088 13.5497 5.77081 13.5394L5.31242 14.4281ZM4.60507 13.6465C4.73852 13.9841 4.98984 14.2618 5.31242 14.4281L5.77081 13.5394C5.66328 13.4839 5.57951 13.3914 5.53502 13.2789L4.60507 13.6465ZM4.5 12.6318C4.5 12.8431 4.49974 13.0259 4.50987 13.1776C4.52033 13.3341 4.54333 13.4904 4.60507 13.6465L5.53502 13.2789C5.52672 13.2578 5.5147 13.2165 5.50764 13.1109C5.50026 13.0003 5.5 12.8563 5.5 12.6318H4.5ZM4.5 11.3683V12.6318H5.5V11.3683H4.5ZM4.60513 10.3533C4.54335 10.5095 4.52034 10.6658 4.50987 10.8224C4.49974 10.9741 4.5 11.157 4.5 11.3683H5.5C5.5 11.1437 5.50026 10.9997 5.50765 10.8891C5.51471 10.7834 5.52673 10.7421 5.53504 10.7211L4.60513 10.3533ZM5.31228 9.57193C4.98981 9.73829 4.73857 10.0159 4.60513 10.3533L5.53504 10.7211C5.57952 10.6086 5.66327 10.5161 5.77076 10.4606L5.31228 9.57193ZM6.3118 9.36633C6.10152 9.38735 5.91947 9.4053 5.76957 9.43047C5.61476 9.45647 5.46156 9.49492 5.31229 9.57193L5.77076 10.4606C5.79084 10.4503 5.83076 10.4342 5.93518 10.4167C6.04452 10.3983 6.1878 10.3837 6.4113 10.3614L6.3118 9.36633ZM6.36155 9.36384H6.36155V10.3638H6.36155V9.36384ZM6.36156 9.36384H6.36155V10.3638H6.36156V9.36384ZM7.51509 9.17132C7.50025 9.18265 7.43914 9.21933 7.22487 9.25789C7.01538 9.2956 6.73074 9.32443 6.31181 9.36633L6.41131 10.3614C6.81346 10.3211 7.14464 10.2884 7.402 10.2421C7.65458 10.1966 7.91135 10.1268 8.12174 9.9663L7.51509 9.17132ZM7.70732 8.70725C7.73124 8.88524 7.65786 9.06238 7.5151 9.17132L8.12174 9.9663C8.55004 9.63946 8.77016 9.10804 8.69841 8.57408L7.70732 8.70725ZM6.9943 7.71844C7.26093 8.04432 7.44182 8.26599 7.5633 8.4408C7.68756 8.61959 7.70484 8.68875 7.70732 8.70725L8.69841 8.57408C8.66317 8.31178 8.53094 8.08087 8.38448 7.87012C8.23524 7.65537 8.0242 7.39802 7.76826 7.0852L6.9943 7.71844ZM6.43283 6.86614C6.48393 7.02617 6.56508 7.16171 6.65618 7.28959C6.74439 7.4134 6.86045 7.55484 6.9943 7.71844L7.76826 7.0852C7.62599 6.91132 7.53497 6.79966 7.47063 6.70935C7.40918 6.6231 7.39232 6.58349 7.38545 6.56197L6.43283 6.86614ZM6.48532 5.81371C6.34112 6.14663 6.32247 6.52052 6.43283 6.86614L7.38544 6.56197C7.34866 6.44676 7.35488 6.32213 7.40294 6.21116L6.48532 5.81371ZM7.12878 5.02153C6.97933 5.17099 6.84977 5.30018 6.74969 5.41459C6.64632 5.53276 6.55209 5.65955 6.48532 5.81371L7.40294 6.21116C7.41192 6.19042 7.43264 6.15269 7.50236 6.07299C7.57536 5.98953 7.67704 5.88749 7.83589 5.72864L7.12878 5.02153ZM8.0221 4.12822L7.12878 5.02154L7.83589 5.72864L8.72921 4.83532L8.0221 4.12822ZM8.0221 4.12821L8.0221 4.12822L8.72921 4.83532L8.72921 4.83532L8.0221 4.12821ZM8.81398 3.48494C8.65989 3.55171 8.53315 3.64591 8.41502 3.74925C8.30065 3.8493 8.1715 3.97881 8.0221 4.12821L8.72921 4.83532C8.888 4.67653 8.99001 4.57489 9.07343 4.50191C9.15311 4.43221 9.19082 4.41149 9.21155 4.40251L8.81398 3.48494ZM9.86677 3.43243C9.52105 3.32199 9.147 3.34065 8.81398 3.48494L9.21155 4.40251C9.32256 4.35442 9.44724 4.3482 9.56248 4.38501L9.86677 3.43243ZM10.7188 3.99378C10.5553 3.85997 10.4139 3.74394 10.2901 3.65575C10.1622 3.56467 10.0268 3.48354 9.86677 3.43243L9.56248 4.38501C9.58399 4.39188 9.62359 4.40874 9.70982 4.47018C9.80011 4.53451 9.91175 4.62551 10.0856 4.76774L10.7188 3.99378ZM11.7072 4.70654C11.6887 4.70405 11.6196 4.68676 11.4409 4.56255C11.2661 4.44111 11.0445 4.26029 10.7188 3.99378L10.0856 4.76774C10.3983 5.02357 10.6555 5.23451 10.8701 5.38369C11.0808 5.5301 11.3116 5.66229 11.5737 5.69759L11.7072 4.70654ZM12.1715 4.51422C12.0625 4.6571 11.8853 4.73052 11.7072 4.70654L11.5737 5.69759C12.108 5.76954 12.6397 5.54927 12.9666 5.12062L12.1715 4.51422ZM12.3664 3.31155C12.3245 3.73026 12.2957 4.01474 12.258 4.22412C12.2195 4.43828 12.1828 4.49938 12.1715 4.51422L12.9666 5.12062C13.127 4.9103 13.1968 4.65367 13.2422 4.40121C13.2885 4.14399 13.3212 3.81299 13.3614 3.41106L12.3664 3.31155ZM12.5718 2.31256C12.4949 2.46176 12.4564 2.61489 12.4305 2.76962C12.4053 2.91943 12.3874 3.10139 12.3664 3.31155L13.3614 3.41106C13.3837 3.18768 13.3983 3.04447 13.4167 2.93519C13.4342 2.83083 13.4502 2.79092 13.4606 2.77085L12.5718 2.31256ZM13.3536 1.60501C13.016 1.73847 12.7382 1.98986 12.5718 2.31255L13.4606 2.77085C13.5161 2.66329 13.6086 2.57949 13.7212 2.535L13.3536 1.60501ZM14.3681 1.5C14.1569 1.5 13.974 1.49974 13.8225 1.50986C13.6659 1.52031 13.5097 1.54331 13.3536 1.60501L13.7212 2.535C13.7422 2.5267 13.7835 2.51469 13.8891 2.50764C13.9997 2.50026 14.1436 2.5 14.3681 2.5V1.5ZM15.6318 1.5H14.3681V2.5H15.6318V1.5ZM16.6465 1.60507C16.4904 1.54333 16.3341 1.52033 16.1776 1.50987C16.0259 1.49974 15.8431 1.5 15.6318 1.5V2.5C15.8563 2.5 16.0003 2.50026 16.1109 2.50764C16.2165 2.5147 16.2578 2.52672 16.2789 2.53502L16.6465 1.60507ZM17.4281 2.31242C17.2618 1.98984 16.9841 1.73852 16.6465 1.60507L16.2789 2.53502C16.3914 2.57951 16.4839 2.66328 16.5394 2.7708L17.4281 2.31242ZM18.5 12C18.5 13.933 16.933 15.5 15 15.5V16.5C17.4853 16.5 19.5 14.4853 19.5 12H18.5ZM15 8.5C16.933 8.5 18.5 10.067 18.5 12H19.5C19.5 9.51472 17.4853 7.5 15 7.5V8.5ZM11.5 12C11.5 10.067 13.067 8.5 15 8.5V7.5C12.5147 7.5 10.5 9.51472 10.5 12H11.5ZM15 15.5C13.067 15.5 11.5 13.933 11.5 12H10.5C10.5 14.4853 12.5147 16.5 15 16.5V15.5Z" fill="#222222"/>
</g>
<defs>
<filter id="filter0_d_2165_625" x="-1" y="0" width="32" height="32" filterUnits="userSpaceOnUse" color-interpolation-filters="sRGB">
<feFlood flood-opacity="0" result="BackgroundImageFix"/>
<feColorMatrix in="SourceAlpha" type="matrix" values="0 0 0 0 0 0 0 0 0 0 0 0 0 0 0 0 0 0 127 0" result="hardAlpha"/>
<feOffset dy="4"/>
<feGaussianBlur stdDeviation="2"/>
<feComposite in2="hardAlpha" operator="out"/>
<feColorMatrix type="matrix" values="0 0 0 0 0 0 0 0 0 0 0 0 0 0 0 0 0 0 0.25 0"/>
<feBlend mode="normal" in2="BackgroundImageFix" result="effect1_dropShadow_2165_625"/>
<feBlend mode="normal" in="SourceGraphic" in2="effect1_dropShadow_2165_625" result="shape"/>
</filter>
</defs>
</svg>
