<svg width="194" height="39" viewBox="0 0 194 39" fill="none" xmlns="http://www.w3.org/2000/svg">
<path d="M17.3097 9.27557C17.196 8.12973 16.7083 7.23958 15.8466 6.60511C14.9848 5.97064 13.8153 5.65341 12.3381 5.65341C11.3343 5.65341 10.4867 5.79545 9.79545 6.07955C9.10417 6.35417 8.57386 6.73769 8.20455 7.23011C7.8447 7.72254 7.66477 8.28125 7.66477 8.90625C7.64583 9.42708 7.75473 9.88163 7.99148 10.2699C8.23769 10.6581 8.57386 10.9943 9 11.2784C9.42614 11.553 9.91856 11.7945 10.4773 12.0028C11.036 12.2017 11.6326 12.3722 12.267 12.5142L14.8807 13.1392C16.1496 13.4233 17.3144 13.8021 18.375 14.2756C19.4356 14.7491 20.3542 15.3314 21.1307 16.0227C21.9072 16.714 22.5085 17.5284 22.9347 18.4659C23.3703 19.4034 23.5928 20.4782 23.6023 21.6903C23.5928 23.4706 23.1383 25.0142 22.2386 26.321C21.3485 27.6184 20.0606 28.6269 18.375 29.3466C16.6989 30.0568 14.6771 30.4119 12.3097 30.4119C9.96117 30.4119 7.91572 30.0521 6.1733 29.3324C4.44034 28.6127 3.08617 27.5473 2.1108 26.1364C1.14489 24.7159 0.638258 22.9593 0.590909 20.8665H6.54261C6.6089 21.8419 6.88826 22.6562 7.38068 23.3097C7.88258 23.9536 8.55019 24.4413 9.38352 24.7727C10.2263 25.0947 11.178 25.2557 12.2386 25.2557C13.2803 25.2557 14.1847 25.1042 14.9517 24.8011C15.7282 24.4981 16.3295 24.0767 16.7557 23.5369C17.1818 22.9972 17.3949 22.3769 17.3949 21.6761C17.3949 21.0227 17.2008 20.4735 16.8125 20.0284C16.4337 19.5833 15.875 19.2045 15.1364 18.892C14.4072 18.5795 13.5123 18.2955 12.4517 18.0398L9.28409 17.2443C6.83144 16.6477 4.89489 15.715 3.47443 14.446C2.05398 13.1771 1.34848 11.4678 1.35795 9.31818C1.34848 7.55682 1.81723 6.01799 2.7642 4.7017C3.72064 3.38542 5.0322 2.35795 6.69886 1.61932C8.36553 0.880681 10.2595 0.511363 12.3807 0.511363C14.5398 0.511363 16.4242 0.880681 18.0341 1.61932C19.6534 2.35795 20.9129 3.38542 21.8125 4.7017C22.7121 6.01799 23.1761 7.54261 23.2045 9.27557H17.3097ZM39.2308 8.18182V12.7273H26.0916V8.18182H39.2308ZM29.0746 2.95455H35.1257V23.2955C35.1257 23.8542 35.2109 24.2898 35.3814 24.6023C35.5518 24.9053 35.7886 25.1184 36.0916 25.2415C36.4041 25.3646 36.764 25.4261 37.1712 25.4261C37.4553 25.4261 37.7393 25.4025 38.0234 25.3551C38.3075 25.2983 38.5253 25.2557 38.6768 25.2273L39.6286 29.7301C39.3255 29.8248 38.8994 29.9337 38.3501 30.0568C37.8009 30.1894 37.1333 30.2699 36.3473 30.2983C34.889 30.3551 33.6106 30.161 32.5121 29.7159C31.4231 29.2708 30.5755 28.5795 29.9695 27.642C29.3634 26.7045 29.0651 25.5208 29.0746 24.0909V2.95455ZM57.1641 20.7102V8.18182H63.2152V30H57.4055V26.0369H57.1783C56.6858 27.3153 55.8667 28.3428 54.7209 29.1193C53.5845 29.8958 52.1972 30.2841 50.5589 30.2841C49.1006 30.2841 47.8175 29.9527 46.7095 29.2898C45.6016 28.6269 44.7351 27.6847 44.1101 26.4631C43.4946 25.2415 43.1821 23.7784 43.1726 22.0739V8.18182H49.2237V20.9943C49.2332 22.2822 49.5788 23.3002 50.2607 24.0483C50.9425 24.7964 51.8563 25.1705 53.0021 25.1705C53.7313 25.1705 54.4131 25.0047 55.0476 24.6733C55.6821 24.3324 56.1934 23.8305 56.5817 23.1676C56.9794 22.5047 57.1735 21.6856 57.1641 20.7102ZM76.0952 30.3551C74.438 30.3551 72.937 29.929 71.5923 29.0767C70.2571 28.215 69.1965 26.9508 68.4105 25.2841C67.634 23.608 67.2457 21.553 67.2457 19.1193C67.2457 16.6193 67.6482 14.5407 68.4531 12.8835C69.258 11.2169 70.3281 9.97159 71.6634 9.14773C73.008 8.31439 74.4806 7.89773 76.081 7.89773C77.3026 7.89773 78.3205 8.10606 79.1349 8.52273C79.9588 8.92992 80.6217 9.44129 81.1236 10.0568C81.6349 10.6629 82.0232 11.2595 82.2884 11.8466H82.473V0.90909H88.5099V30H82.544V26.5057H82.2884C82.0043 27.1117 81.6018 27.7131 81.081 28.3097C80.5696 28.8968 79.902 29.3845 79.0781 29.7727C78.2637 30.161 77.2694 30.3551 76.0952 30.3551ZM78.0128 25.5398C78.9882 25.5398 79.812 25.2746 80.4844 24.7443C81.1662 24.2045 81.687 23.4517 82.0469 22.4858C82.4162 21.5199 82.6009 20.3883 82.6009 19.0909C82.6009 17.7936 82.4209 16.6667 82.0611 15.7102C81.7012 14.7538 81.1804 14.0152 80.4986 13.4943C79.8168 12.9735 78.9882 12.7131 78.0128 12.7131C77.0185 12.7131 76.1804 12.983 75.4986 13.5227C74.8168 14.0625 74.3007 14.8106 73.9503 15.767C73.5999 16.7235 73.4247 17.8314 73.4247 19.0909C73.4247 20.3598 73.5999 21.482 73.9503 22.4574C74.3101 23.4233 74.8262 24.1809 75.4986 24.7301C76.1804 25.2699 77.0185 25.5398 78.0128 25.5398ZM97.2209 38.1818C96.4538 38.1818 95.7341 38.1203 95.0618 37.9972C94.3989 37.8835 93.8497 37.7367 93.4141 37.5568L94.7777 33.0398C95.4879 33.2576 96.1271 33.3759 96.6953 33.3949C97.273 33.4138 97.7701 33.2813 98.1868 32.9972C98.6129 32.7131 98.9586 32.2301 99.2237 31.5483L99.5788 30.625L91.7521 8.18182H98.1158L102.633 24.2045H102.86L107.42 8.18182H113.826L105.346 32.358C104.939 33.5322 104.385 34.5549 103.684 35.4261C102.993 36.3068 102.117 36.9839 101.056 37.4574C99.9955 37.9403 98.7171 38.1818 97.2209 38.1818ZM117.036 30V0.90909H123.187V12.9119H135.673V0.90909H141.809V30H135.673V17.983H123.187V30H117.036ZM160.758 20.7102V8.18182H166.809V30H160.999V26.0369H160.772C160.28 27.3153 159.46 28.3428 158.315 29.1193C157.178 29.8958 155.791 30.2841 154.153 30.2841C152.694 30.2841 151.411 29.9527 150.303 29.2898C149.195 28.6269 148.329 27.6847 147.704 26.4631C147.088 25.2415 146.776 23.7784 146.766 22.0739V8.18182H152.817V20.9943C152.827 22.2822 153.173 23.3002 153.854 24.0483C154.536 24.7964 155.45 25.1705 156.596 25.1705C157.325 25.1705 158.007 25.0047 158.641 24.6733C159.276 24.3324 159.787 23.8305 160.175 23.1676C160.573 22.5047 160.767 21.6856 160.758 20.7102ZM171.763 30V0.90909H177.814V11.8466H177.999C178.264 11.2595 178.647 10.6629 179.149 10.0568C179.661 9.44129 180.323 8.92992 181.138 8.52273C181.962 8.10606 182.984 7.89773 184.206 7.89773C185.797 7.89773 187.265 8.31439 188.609 9.14773C189.954 9.97159 191.029 11.2169 191.834 12.8835C192.639 14.5407 193.041 16.6193 193.041 19.1193C193.041 21.553 192.648 23.608 191.862 25.2841C191.086 26.9508 190.025 28.215 188.68 29.0767C187.345 29.929 185.849 30.3551 184.192 30.3551C183.018 30.3551 182.018 30.161 181.195 29.7727C180.38 29.3845 179.713 28.8968 179.192 28.3097C178.671 27.7131 178.273 27.1117 177.999 26.5057H177.729V30H171.763ZM177.686 19.0909C177.686 20.3883 177.866 21.5199 178.226 22.4858C178.586 23.4517 179.107 24.2045 179.788 24.7443C180.47 25.2746 181.299 25.5398 182.274 25.5398C183.259 25.5398 184.092 25.2699 184.774 24.7301C185.456 24.1809 185.972 23.4233 186.322 22.4574C186.682 21.482 186.862 20.3598 186.862 19.0909C186.862 17.8314 186.687 16.7235 186.337 15.767C185.986 14.8106 185.47 14.0625 184.788 13.5227C184.107 12.983 183.268 12.7131 182.274 12.7131C181.289 12.7131 180.456 12.9735 179.774 13.4943C179.102 14.0152 178.586 14.7538 178.226 15.7102C177.866 16.6667 177.686 17.7936 177.686 19.0909Z" fill="white"/>
</svg>
