<svg width="27" height="30" viewBox="0 0 27 30" fill="none" xmlns="http://www.w3.org/2000/svg">
<g clip-path="url(#clip0_2028_74)">
<path d="M26.7745 12.2988C24.1424 12.3044 21.5751 11.4988 19.4354 9.99609V20.4727C19.4348 22.413 18.8299 24.3068 17.7017 25.901C16.5735 27.4951 14.9757 28.7136 13.122 29.3933C11.2684 30.073 9.24722 30.1817 7.32888 29.7047C5.41053 29.2277 3.68645 28.1879 2.38723 26.7242C1.088 25.2606 0.27557 23.4429 0.0585898 21.5143C-0.158391 19.5856 0.230424 17.6381 1.17303 15.932C2.11564 14.2259 3.5671 12.8426 5.3333 11.9672C7.0995 11.0918 9.09622 10.7659 11.0564 11.0332V16.3008C10.1601 16.0242 9.19758 16.0322 8.30624 16.3239C7.4149 16.6156 6.64035 17.1759 6.09316 17.9248C5.54598 18.6738 5.25415 19.5731 5.25935 20.4943C5.26454 21.4156 5.56649 22.3117 6.12209 23.0546C6.67768 23.7976 7.45851 24.3495 8.35308 24.6315C9.24765 24.9135 10.2102 24.9111 11.1034 24.6248C11.9965 24.3385 12.7745 23.7828 13.3264 23.0371C13.8782 22.2915 14.1756 21.3939 14.1761 20.4727V0H19.4354C19.4324 0.436092 19.4704 0.871526 19.549 1.30078C19.7319 2.25762 20.1119 3.16784 20.6657 3.97582C21.2196 4.78379 21.9357 5.47255 22.7703 6C23.9582 6.76924 25.3508 7.17883 26.7745 7.17773V12.2988Z" fill="black"/>
</g>
<defs>
<clipPath id="clip0_2028_74">
<rect width="26.7745" height="30" fill="white"/>
</clipPath>
</defs>
</svg>
