<svg width="27" height="25" viewBox="0 0 27 25" fill="none" xmlns="http://www.w3.org/2000/svg">
<path d="M24.2493 6.27446C24.265 6.53227 24.265 6.79581 24.265 7.05363C24.265 15 18.7428 24.1609 8.65007 24.1609C5.53858 24.1609 2.65196 23.1755 0.225525 21.4625C0.664793 21.5198 1.0936 21.537 1.54856 21.537C4.11619 21.537 6.47464 20.5859 8.36245 18.9703C5.95171 18.913 3.92793 17.1828 3.23242 14.7995C3.57233 14.8568 3.91224 14.8911 4.26784 14.8911C4.7594 14.8911 5.25097 14.8166 5.71115 14.6849C3.19582 14.1291 1.31324 11.7057 1.31324 8.78383V8.70935C2.04535 9.15623 2.89251 9.43696 3.79197 9.47133C2.31205 8.39425 1.34461 6.54946 1.34461 4.46404C1.34461 3.34685 1.61654 2.32133 2.09242 1.42758C4.79601 5.07706 8.85402 7.4604 13.4088 7.71821C13.3251 7.27133 13.2728 6.80727 13.2728 6.34321C13.2728 3.03175 15.7202 0.333313 18.7585 0.333313C20.3378 0.333313 21.7654 1.06092 22.7694 2.22967C24.0088 1.97185 25.2011 1.46769 26.2522 0.780188C25.8443 2.1781 24.9762 3.34685 23.8414 4.09165C24.9448 3.95988 26.0169 3.62758 27 3.16352C26.2522 4.35519 25.3161 5.41508 24.2493 6.27446Z" fill="black"/>
</svg>
