<svg width="24" height="25" viewBox="0 0 24 25" fill="none" xmlns="http://www.w3.org/2000/svg">
<path d="M12.06 18.0518C11.65 18.0518 11.31 17.7118 11.31 17.3018V12.3018C11.31 11.8918 11.65 11.5518 12.06 11.5518C12.47 11.5518 12.81 11.8918 12.81 12.3018V17.3018C12.81 17.7118 12.47 18.0518 12.06 18.0518Z" fill="#292D32"/>
<path d="M14.5 15.5518H9.5C9.09 15.5518 8.75 15.2118 8.75 14.8018C8.75 14.3918 9.09 14.0518 9.5 14.0518H14.5C14.91 14.0518 15.25 14.3918 15.25 14.8018C15.25 15.2118 14.91 15.5518 14.5 15.5518Z" fill="#292D32"/>
<path d="M17 23.5518H7C2.59 23.5518 1.25 22.2118 1.25 17.8018V7.80176C1.25 3.39176 2.59 2.05176 7 2.05176H8.5C10.25 2.05176 10.8 2.62176 11.5 3.55176L13 5.55176C13.33 5.99176 13.38 6.05176 14 6.05176H17C21.41 6.05176 22.75 7.39176 22.75 11.8018V17.8018C22.75 22.2118 21.41 23.5518 17 23.5518ZM7 3.55176C3.43 3.55176 2.75 4.23176 2.75 7.80176V17.8018C2.75 21.3718 3.43 22.0518 7 22.0518H17C20.57 22.0518 21.25 21.3718 21.25 17.8018V11.8018C21.25 8.23176 20.57 7.55176 17 7.55176H14C12.72 7.55176 12.3 7.11176 11.8 6.45176L10.3 4.45176C9.78 3.76176 9.63 3.55176 8.5 3.55176H7Z" fill="#292D32"/>
</svg>
